{
    "asset" : {
        "generator" : "Khronos glTF Blender I/O v1.3.48",
        "version" : "2.0"
    },
    "scene" : 0,
    "scenes" : [
        {
            "name" : "Scene",
            "nodes" : [
                0
            ]
        }
    ],
    "nodes" : [
        {
            "mesh" : 0,
            "name" : "Cube.018"
        }
    ],
    "materials" : [
        {
            "doubleSided" : true,
            "emissiveFactor" : [
                0,
                0,
                0
            ],
            "name" : "Material",
            "pbrMetallicRoughness" : {
                "baseColorFactor" : [
                    0.03189603611826897,
                    0.023153362795710564,
                    0.019382359459996223,
                    0.2909091114997864
                ],
                "metallicFactor" : 0,
                "roughnessFactor" : 0.3181818127632141
            }
        },
        {
            "doubleSided" : true,
            "emissiveFactor" : [
                0,
                0,
                0
            ],
            "name" : "Material.001",
            "pbrMetallicRoughness" : {
                "baseColorFactor" : [
                    0.800000011920929,
                    0.800000011920929,
                    0.800000011920929,
                    1
                ],
                "metallicFactor" : 0,
                "roughnessFactor" : 0
            }
        },
        {
            "doubleSided" : true,
            "emissiveFactor" : [
                0,
                0,
                0
            ],
            "name" : "Material.003",
            "pbrMetallicRoughness" : {
                "baseColorFactor" : [
                    0.011402225121855736,
                    0.014196588657796383,
                    0.018794268369674683,
                    1
                ],
                "metallicFactor" : 0,
                "roughnessFactor" : 0.5
            }
        },
        {
            "doubleSided" : true,
            "emissiveFactor" : [
                0,
                0,
                0
            ],
            "name" : "Material.002",
            "pbrMetallicRoughness" : {
                "baseColorFactor" : [
                    0.5088812708854675,
                    0.30054378509521484,
                    0.05612849444150925,
                    1
                ],
                "metallicFactor" : 0,
                "roughnessFactor" : 0.4318181872367859
            }
        },
        {
            "doubleSided" : true,
            "emissiveFactor" : [
                0,
                0,
                0
            ],
            "name" : "Material.004",
            "pbrMetallicRoughness" : {
                "baseColorFactor" : [
                    0.02955683320760727,
                    0.03310476616024971,
                    0.039546236395835876,
                    1
                ],
                "metallicFactor" : 0,
                "roughnessFactor" : 0.5
            }
        },
        {
            "doubleSided" : true,
            "emissiveFactor" : [
                0,
                0,
                0
            ],
            "name" : "Material.005",
            "pbrMetallicRoughness" : {
                "baseColorFactor" : [
                    0.04817182198166847,
                    0.05286065861582756,
                    0.061246056109666824,
                    1
                ],
                "metallicFactor" : 0,
                "roughnessFactor" : 0.5
            }
        },
        {
            "doubleSided" : true,
            "emissiveFactor" : [
                0,
                0,
                0
            ],
            "name" : "Material.008",
            "pbrMetallicRoughness" : {
                "baseColorFactor" : [
                    0.47946828603744507,
                    0.5062811374664307,
                    0.41543811559677124,
                    1
                ],
                "metallicFactor" : 0.072727270424366,
                "roughnessFactor" : 0.06363636255264282
            }
        },
        {
            "doubleSided" : true,
            "emissiveFactor" : [
                0,
                0,
                0
            ],
            "name" : "Material.009",
            "pbrMetallicRoughness" : {
                "baseColorFactor" : [
                    0.32489922642707825,
                    0.32489922642707825,
                    0.32489922642707825,
                    1
                ],
                "metallicFactor" : 0.11363636702299118,
                "roughnessFactor" : 0.9181817770004272
            }
        },
        {
            "doubleSided" : true,
            "emissiveFactor" : [
                0,
                0,
                0
            ],
            "name" : "Material.007",
            "pbrMetallicRoughness" : {
                "baseColorFactor" : [
                    0.800000011920929,
                    0.800000011920929,
                    0.800000011920929,
                    0.7363636493682861
                ],
                "metallicFactor" : 0,
                "roughnessFactor" : 0.12727272510528564
            }
        },
        {
            "doubleSided" : true,
            "emissiveFactor" : [
                0,
                0,
                0
            ],
            "name" : "Material.010",
            "pbrMetallicRoughness" : {
                "baseColorFactor" : [
                    0.22696588933467865,
                    0.1499597728252411,
                    0.04091519117355347,
                    1
                ],
                "metallicFactor" : 0,
                "roughnessFactor" : 0.5
            }
        },
        {
            "doubleSided" : true,
            "emissiveFactor" : [
                0,
                0,
                0
            ],
            "name" : "Material.006",
            "pbrMetallicRoughness" : {
                "baseColorFactor" : [
                    0.5098578333854675,
                    0.12777623534202576,
                    0.17600668966770172,
                    1
                ],
                "metallicFactor" : 0,
                "roughnessFactor" : 0.25
            }
        }
    ],
    "meshes" : [
        {
            "name" : "Cube.052",
            "primitives" : [
                {
                    "attributes" : {
                        "POSITION" : 0,
                        "NORMAL" : 1,
                        "TEXCOORD_0" : 2
                    },
                    "indices" : 3,
                    "material" : 0
                },
                {
                    "attributes" : {
                        "POSITION" : 4,
                        "NORMAL" : 5,
                        "TEXCOORD_0" : 6
                    },
                    "indices" : 7,
                    "material" : 1
                },
                {
                    "attributes" : {
                        "POSITION" : 8,
                        "NORMAL" : 9,
                        "TEXCOORD_0" : 10
                    },
                    "indices" : 11,
                    "material" : 2
                },
                {
                    "attributes" : {
                        "POSITION" : 12,
                        "NORMAL" : 13,
                        "TEXCOORD_0" : 14
                    },
                    "indices" : 15,
                    "material" : 3
                },
                {
                    "attributes" : {
                        "POSITION" : 16,
                        "NORMAL" : 17,
                        "TEXCOORD_0" : 18
                    },
                    "indices" : 19,
                    "material" : 4
                },
                {
                    "attributes" : {
                        "POSITION" : 20,
                        "NORMAL" : 21,
                        "TEXCOORD_0" : 22
                    },
                    "indices" : 19,
                    "material" : 5
                },
                {
                    "attributes" : {
                        "POSITION" : 23,
                        "NORMAL" : 24,
                        "TEXCOORD_0" : 25
                    },
                    "indices" : 26,
                    "material" : 6
                },
                {
                    "attributes" : {
                        "POSITION" : 27,
                        "NORMAL" : 28,
                        "TEXCOORD_0" : 29
                    },
                    "indices" : 30,
                    "material" : 7
                },
                {
                    "attributes" : {
                        "POSITION" : 31,
                        "NORMAL" : 32,
                        "TEXCOORD_0" : 33
                    },
                    "indices" : 34,
                    "material" : 8
                },
                {
                    "attributes" : {
                        "POSITION" : 35,
                        "NORMAL" : 36,
                        "TEXCOORD_0" : 37
                    },
                    "indices" : 38,
                    "material" : 9
                },
                {
                    "attributes" : {
                        "POSITION" : 39,
                        "NORMAL" : 40,
                        "TEXCOORD_0" : 41
                    },
                    "indices" : 19,
                    "material" : 10
                }
            ]
        }
    ],
    "accessors" : [
        {
            "bufferView" : 0,
            "componentType" : 5126,
            "count" : 160,
            "max" : [
                12.513243675231934,
                5.146428108215332,
                1.675655722618103
            ],
            "min" : [
                -12.172324180603027,
                -0.0034041404724121094,
                -6.970014572143555
            ],
            "type" : "VEC3"
        },
        {
            "bufferView" : 1,
            "componentType" : 5126,
            "count" : 160,
            "type" : "VEC3"
        },
        {
            "bufferView" : 2,
            "componentType" : 5126,
            "count" : 160,
            "type" : "VEC2"
        },
        {
            "bufferView" : 3,
            "componentType" : 5123,
            "count" : 282,
            "type" : "SCALAR"
        },
        {
            "bufferView" : 4,
            "componentType" : 5126,
            "count" : 364,
            "max" : [
                12.513243675231934,
                5.825170516967773,
                0.9999999403953552
            ],
            "min" : [
                -12.172324180603027,
                1.5057142972946167,
                -6.970014572143555
            ],
            "type" : "VEC3"
        },
        {
            "bufferView" : 5,
            "componentType" : 5126,
            "count" : 364,
            "type" : "VEC3"
        },
        {
            "bufferView" : 6,
            "componentType" : 5126,
            "count" : 364,
            "type" : "VEC2"
        },
        {
            "bufferView" : 7,
            "componentType" : 5123,
            "count" : 792,
            "type" : "SCALAR"
        },
        {
            "bufferView" : 8,
            "componentType" : 5126,
            "count" : 72,
            "max" : [
                12.966622352600098,
                3.372448682785034,
                1.4353312253952026
            ],
            "min" : [
                -12.625704765319824,
                0.002337217330932617,
                -7.405346393585205
            ],
            "type" : "VEC3"
        },
        {
            "bufferView" : 9,
            "componentType" : 5126,
            "count" : 72,
            "type" : "VEC3"
        },
        {
            "bufferView" : 10,
            "componentType" : 5126,
            "count" : 72,
            "type" : "VEC2"
        },
        {
            "bufferView" : 11,
            "componentType" : 5123,
            "count" : 108,
            "type" : "SCALAR"
        },
        {
            "bufferView" : 12,
            "componentType" : 5126,
            "count" : 524,
            "max" : [
                13.065008163452148,
                6.401123046875,
                1.675655722618103
            ],
            "min" : [
                -12.724090576171875,
                3.355095624923706,
                -7.501148700714111
            ],
            "type" : "VEC3"
        },
        {
            "bufferView" : 13,
            "componentType" : 5126,
            "count" : 524,
            "type" : "VEC3"
        },
        {
            "bufferView" : 14,
            "componentType" : 5126,
            "count" : 524,
            "type" : "VEC2"
        },
        {
            "bufferView" : 15,
            "componentType" : 5123,
            "count" : 828,
            "type" : "SCALAR"
        },
        {
            "bufferView" : 16,
            "componentType" : 5126,
            "count" : 24,
            "max" : [
                -1.839751958847046,
                3.372448444366455,
                1.4353312253952026
            ],
            "min" : [
                -2.8628880977630615,
                0.002337217330932617,
                0.412195086479187
            ],
            "type" : "VEC3"
        },
        {
            "bufferView" : 17,
            "componentType" : 5126,
            "count" : 24,
            "type" : "VEC3"
        },
        {
            "bufferView" : 18,
            "componentType" : 5126,
            "count" : 24,
            "type" : "VEC2"
        },
        {
            "bufferView" : 19,
            "componentType" : 5123,
            "count" : 36,
            "type" : "SCALAR"
        },
        {
            "bufferView" : 20,
            "componentType" : 5126,
            "count" : 24,
            "max" : [
                7.864258766174316,
                3.372448444366455,
                1.4353312253952026
            ],
            "min" : [
                6.841123580932617,
                0.002337217330932617,
                0.412195086479187
            ],
            "type" : "VEC3"
        },
        {
            "bufferView" : 21,
            "componentType" : 5126,
            "count" : 24,
            "type" : "VEC3"
        },
        {
            "bufferView" : 22,
            "componentType" : 5126,
            "count" : 24,
            "type" : "VEC2"
        },
        {
            "bufferView" : 23,
            "componentType" : 5126,
            "count" : 2423,
            "max" : [
                6.522416114807129,
                4.790310859680176,
                0.9167881011962891
            ],
            "min" : [
                -11.355914115905762,
                -0.0009424686431884766,
                0.788616418838501
            ],
            "type" : "VEC3"
        },
        {
            "bufferView" : 24,
            "componentType" : 5126,
            "count" : 2423,
            "type" : "VEC3"
        },
        {
            "bufferView" : 25,
            "componentType" : 5126,
            "count" : 2423,
            "type" : "VEC2"
        },
        {
            "bufferView" : 26,
            "componentType" : 5123,
            "count" : 4656,
            "type" : "SCALAR"
        },
        {
            "bufferView" : 27,
            "componentType" : 5126,
            "count" : 3045,
            "max" : [
                11.714599609375,
                6.220110893249512,
                0.8823056221008301
            ],
            "min" : [
                -11.370731353759766,
                1.5432876348495483,
                -6.175282001495361
            ],
            "type" : "VEC3"
        },
        {
            "bufferView" : 28,
            "componentType" : 5126,
            "count" : 3045,
            "type" : "VEC3"
        },
        {
            "bufferView" : 29,
            "componentType" : 5126,
            "count" : 3045,
            "type" : "VEC2"
        },
        {
            "bufferView" : 30,
            "componentType" : 5123,
            "count" : 5316,
            "type" : "SCALAR"
        },
        {
            "bufferView" : 31,
            "componentType" : 5126,
            "count" : 8,
            "max" : [
                6.438508987426758,
                4.804452896118164,
                0.8528968691825867
            ],
            "min" : [
                -11.27173900604248,
                1.5232698917388916,
                0.8528959155082703
            ],
            "type" : "VEC3"
        },
        {
            "bufferView" : 32,
            "componentType" : 5126,
            "count" : 8,
            "type" : "VEC3"
        },
        {
            "bufferView" : 33,
            "componentType" : 5126,
            "count" : 8,
            "type" : "VEC2"
        },
        {
            "bufferView" : 34,
            "componentType" : 5123,
            "count" : 12,
            "type" : "SCALAR"
        },
        {
            "bufferView" : 35,
            "componentType" : 5126,
            "count" : 4,
            "max" : [
                29.057741165161133,
                0.005914211273193359,
                25.040163040161133
            ],
            "min" : [
                -27.1232852935791,
                0.005914211273193359,
                -31.14086151123047
            ],
            "type" : "VEC3"
        },
        {
            "bufferView" : 36,
            "componentType" : 5126,
            "count" : 4,
            "type" : "VEC3"
        },
        {
            "bufferView" : 37,
            "componentType" : 5126,
            "count" : 4,
            "type" : "VEC2"
        },
        {
            "bufferView" : 38,
            "componentType" : 5123,
            "count" : 6,
            "type" : "SCALAR"
        },
        {
            "bufferView" : 39,
            "componentType" : 5126,
            "count" : 24,
            "max" : [
                12.092288970947266,
                8.271322250366211,
                0.33203285932540894
            ],
            "min" : [
                -11.748419761657715,
                6.221722602844238,
                -6.280031204223633
            ],
            "type" : "VEC3"
        },
        {
            "bufferView" : 40,
            "componentType" : 5126,
            "count" : 24,
            "type" : "VEC3"
        },
        {
            "bufferView" : 41,
            "componentType" : 5126,
            "count" : 24,
            "type" : "VEC2"
        }
    ],
    "bufferViews" : [
        {
            "buffer" : 0,
            "byteLength" : 1920,
            "byteOffset" : 0
        },
        {
            "buffer" : 0,
            "byteLength" : 1920,
            "byteOffset" : 1920
        },
        {
            "buffer" : 0,
            "byteLength" : 1280,
            "byteOffset" : 3840
        },
        {
            "buffer" : 0,
            "byteLength" : 564,
            "byteOffset" : 5120
        },
        {
            "buffer" : 0,
            "byteLength" : 4368,
            "byteOffset" : 5684
        },
        {
            "buffer" : 0,
            "byteLength" : 4368,
            "byteOffset" : 10052
        },
        {
            "buffer" : 0,
            "byteLength" : 2912,
            "byteOffset" : 14420
        },
        {
            "buffer" : 0,
            "byteLength" : 1584,
            "byteOffset" : 17332
        },
        {
            "buffer" : 0,
            "byteLength" : 864,
            "byteOffset" : 18916
        },
        {
            "buffer" : 0,
            "byteLength" : 864,
            "byteOffset" : 19780
        },
        {
            "buffer" : 0,
            "byteLength" : 576,
            "byteOffset" : 20644
        },
        {
            "buffer" : 0,
            "byteLength" : 216,
            "byteOffset" : 21220
        },
        {
            "buffer" : 0,
            "byteLength" : 6288,
            "byteOffset" : 21436
        },
        {
            "buffer" : 0,
            "byteLength" : 6288,
            "byteOffset" : 27724
        },
        {
            "buffer" : 0,
            "byteLength" : 4192,
            "byteOffset" : 34012
        },
        {
            "buffer" : 0,
            "byteLength" : 1656,
            "byteOffset" : 38204
        },
        {
            "buffer" : 0,
            "byteLength" : 288,
            "byteOffset" : 39860
        },
        {
            "buffer" : 0,
            "byteLength" : 288,
            "byteOffset" : 40148
        },
        {
            "buffer" : 0,
            "byteLength" : 192,
            "byteOffset" : 40436
        },
        {
            "buffer" : 0,
            "byteLength" : 72,
            "byteOffset" : 40628
        },
        {
            "buffer" : 0,
            "byteLength" : 288,
            "byteOffset" : 40700
        },
        {
            "buffer" : 0,
            "byteLength" : 288,
            "byteOffset" : 40988
        },
        {
            "buffer" : 0,
            "byteLength" : 192,
            "byteOffset" : 41276
        },
        {
            "buffer" : 0,
            "byteLength" : 29076,
            "byteOffset" : 41468
        },
        {
            "buffer" : 0,
            "byteLength" : 29076,
            "byteOffset" : 70544
        },
        {
            "buffer" : 0,
            "byteLength" : 19384,
            "byteOffset" : 99620
        },
        {
            "buffer" : 0,
            "byteLength" : 9312,
            "byteOffset" : 119004
        },
        {
            "buffer" : 0,
            "byteLength" : 36540,
            "byteOffset" : 128316
        },
        {
            "buffer" : 0,
            "byteLength" : 36540,
            "byteOffset" : 164856
        },
        {
            "buffer" : 0,
            "byteLength" : 24360,
            "byteOffset" : 201396
        },
        {
            "buffer" : 0,
            "byteLength" : 10632,
            "byteOffset" : 225756
        },
        {
            "buffer" : 0,
            "byteLength" : 96,
            "byteOffset" : 236388
        },
        {
            "buffer" : 0,
            "byteLength" : 96,
            "byteOffset" : 236484
        },
        {
            "buffer" : 0,
            "byteLength" : 64,
            "byteOffset" : 236580
        },
        {
            "buffer" : 0,
            "byteLength" : 24,
            "byteOffset" : 236644
        },
        {
            "buffer" : 0,
            "byteLength" : 48,
            "byteOffset" : 236668
        },
        {
            "buffer" : 0,
            "byteLength" : 48,
            "byteOffset" : 236716
        },
        {
            "buffer" : 0,
            "byteLength" : 32,
            "byteOffset" : 236764
        },
        {
            "buffer" : 0,
            "byteLength" : 12,
            "byteOffset" : 236796
        },
        {
            "buffer" : 0,
            "byteLength" : 288,
            "byteOffset" : 236808
        },
        {
            "buffer" : 0,
            "byteLength" : 288,
            "byteOffset" : 237096
        },
        {
            "buffer" : 0,
            "byteLength" : 192,
            "byteOffset" : 237384
        }
    ],
    "buffers" : [
        {
            "byteLength" : 237576,
            "uri" : "data:application/octet-stream;base64,"
        }
    ]
}
